PathFileType	4	(X/Y/Z)	c:\Git\powerlifing_model_clean\simulations\HC835B\Session1\HC835B_OGR_0003\marker_experimental.trc
DataRate	CameraRate	NumFrames	NumMarkers	Units	OrigDataRate	OrigDataStartFrame	OrigNumFrames
240.000000	240.000000	4	38	mm	240.000000	161	215
Frame#	Time	RPSI			LPSI			RASI			LASI			RTH1			RTH2			RTH3			RTH4			RSK1			RSK2			RSK3			RSK4			RCAL1			RCAL2			RCAL3			RST			RPT			RTN			RFMB			RSMB			RVMB			RFMH			RSMH			RVMH			RPM			LTH1			LTH2			LTH3			LTH4			LSK1			LSK2			LSK3			LSK4			LCAL1			LCAL2			LCAL3			LFMH			LVMH			
		X1	Y1	Z1	X2	Y2	Z2	X3	Y3	Z3	X4	Y4	Z4	X5	Y5	Z5	X6	Y6	Z6	X7	Y7	Z7	X8	Y8	Z8	X9	Y9	Z9	X10	Y10	Z10	X11	Y11	Z11	X12	Y12	Z12	X13	Y13	Z13	X14	Y14	Z14	X15	Y15	Z15	X16	Y16	Z16	X17	Y17	Z17	X18	Y18	Z18	X19	Y19	Z19	X20	Y20	Z20	X21	Y21	Z21	X22	Y22	Z22	X23	Y23	Z23	X24	Y24	Z24	X25	Y25	Z25	X26	Y26	Z26	X27	Y27	Z27	X28	Y28	Z28	X29	Y29	Z29	X30	Y30	Z30	X31	Y31	Z31	X32	Y32	Z32	X33	Y33	Z33	X34	Y34	Z34	X35	Y35	Z35	X36	Y36	Z36	X37	Y37	Z37	X38	Y38	Z38	

162	0.6708333333333333	498.7982177734376	1170.7822265625	-1958.7333984375	385.7465209960939	1168.55078125	-1959.433349609375	548.6920166015626	1094.597290039063	-2154.711669921875	310.9266052246094	1086.092529296875	-2151.539306640625	632.5206298828126	853.2097778320315	-2180.198974609375	621.5039062500001	871.2151489257815	-2237.430419921875	620.5454711914064	792.4908447265627	-2237.996337890625	597.7731323242189	807.983825683594	-2290.043701171875	563.2562255859376	453.6334228515626	-2081.127685546875	561.6715698242189	406.1929626464845	-2120.616455078125	556.1713867187501	399.2876281738282	-2060.28759765625	542.6008911132814	355.2223815917969	-2098.596435546875	493.468231201172	323.9188537597657	-1926.438110351563	453.9110107421876	297.9747924804688	-1912.52734375	516.4047851562501	289.1721801757813	-1901.8662109375	443.7814941406251	265.6032104492188	-1975.950073242188	543.0484619140626	254.9665069580079	-1950.788818359375	461.6282043457032	241.1962890625001	-2026.65771484375	459.9981689453126	207.2975158691407	-2039.006958007813	511.4086303710939	209.7189941406251	-2055.93701171875	545.8262329101564	204.5077209472657	-1965.798950195313	448.2870178222657	148.4115600585938	-2058.906982421875	503.9011535644532	142.7572174072266	-2073.18359375	559.0883789062501	142.4427795410157	-2015.137817382813	491.8515625000001	103.8301239013672	-2112.369384765625	252.9751434326172	831.169372558594	-1980.37109375	260.8654785156251	801.9319458007815	-2033.554077148438	262.4593505859376	745.6711425781251	-1974.33642578125	285.8487854003907	719.3178710937501	-2024.105712890625	306.9958801269532	370.5566711425782	-1718.281982421875	298.2846984863282	331.0170288085938	-1754.175170898438	309.9931945800782	314.5959472656251	-1708.545654296875	315.4045410156251	275.7171325683594	-1748.996826171875	372.5159301757813	223.426986694336	-1599.135864257813	351.5649414062501	189.9655303955078	-1572.440063476563	409.0384826660157	197.8158721923829	-1582.063598632813	429.8251953125001	65.04023742675783	-1746.405395507813	322.4386291503907	43.01535415649415	-1689.421264648438	
163	0.675	498.655975341797	1173.935180664063	-1973.88427734375	385.4525451660157	1171.051391601563	-1975.25	548.9055786132814	1098.820922851563	-2169.7734375	311.8455810546876	1088.753662109375	-2167.33447265625	632.2282104492189	856.1961669921877	-2195.737548828125	621.4720458984376	874.1064453125002	-2253.04833984375	620.2850341796876	795.4028930664065	-2253.426513671875	597.7326049804689	810.801452636719	-2305.59423828125	561.9655761718751	448.6527709960939	-2101.6904296875	561.1347656250001	402.5976562500001	-2142.8291015625	554.9768066406251	393.4966735839845	-2082.84912109375	542.1899414062501	350.7751770019532	-2122.943115234375	491.0298461914064	312.2076721191407	-1952.868530273438	451.7656250000001	286.0754699707032	-1940.068237304688	514.1291503906251	276.6229858398438	-1929.053955078125	442.3256835937501	256.5401611328126	-2004.875244140625	540.9179077148439	244.255844116211	-1978.591430664063	459.981414794922	235.0957946777344	-2058.31689453125	459.1340637207032	200.6827239990235	-2070.13232421875	510.7337036132814	203.6978302001954	-2086.367431640625	543.7814331054689	194.4898376464844	-1995.85986328125	447.6142883300782	142.8323669433594	-2092.51220703125	503.238250732422	137.5520782470703	-2106.51708984375	557.6692504882814	134.5538482666016	-2047.940063476563	491.4722290039064	100.3530349731446	-2147.412353515625	252.7593078613282	834.7829589843752	-1993.25244140625	261.6396789550782	804.824645996094	-2045.86572265625	262.7140808105469	749.5404663085939	-1985.593627929688	286.7816162109376	722.6359252929689	-2034.926879882813	305.6905517578126	375.5876159667969	-1725.3232421875	296.7755737304688	336.2263488769532	-1761.266479492188	308.5094909667969	319.5098876953126	-1715.816040039063	313.7365417480469	280.8655700683594	-1756.287719726563	370.4549255371094	230.9184570312501	-1608.636840820313	350.1684570312501	198.4070587158204	-1580.383666992188	407.4109191894532	206.5497436523438	-1590.682739257813	428.8125610351564	67.26458740234376	-1750.001831054688	322.2011413574219	46.25896453857423	-1691.483642578125	
164	0.6791666666666667	498.432830810547	1176.856079101563	-1989.076416015625	385.1264648437501	1173.518188476563	-1990.774658203125	549.0749511718751	1103.04931640625	-2184.86083984375	312.8499755859376	1091.323608398438	-2183.15380859375	631.7647705078126	858.8979492187502	-2211.06640625	621.3341064453126	876.6409912109377	-2268.459716796875	619.8748168945314	797.9316406250002	-2268.650390625	597.5444946289064	813.2715454101565	-2320.88525390625	560.6965942382814	443.5610351562501	-2122.18017578125	560.7135009765626	398.974822998047	-2164.932861328125	553.7588500976564	387.6610107421876	-2105.402587890625	541.9640502929689	346.3742675781251	-2147.10986328125	488.7694091796876	300.5305786132813	-1979.456298828125	449.6564025878907	274.2603454589844	-1967.94775390625	511.9488220214845	264.2636718750001	-1956.5576171875	440.9575500488282	247.4449615478516	-2034.05810546875	539.1597290039064	233.9414367675782	-2007.020263671875	459.1089477539064	228.3471069335938	-2088.1923828125	458.3603515625001	194.3749694824219	-2101.325439453125	510.2394104003907	198.1803894042969	-2117.181640625	542.2322387695314	184.8143768310547	-2026.40234375	446.9940185546876	137.7230072021485	-2126.437744140625	502.7799377441407	132.7082672119141	-2139.81005859375	556.2278442382814	126.9384231567383	-2080.62890625	491.436492919922	97.3023376464844	-2182.34716796875	252.5150909423829	838.3461914062502	-2006.46533203125	262.2810058593751	807.5744628906252	-2058.144287109375	263.0098266601563	753.2728881835939	-1996.968872070313	287.6958923339844	725.6406860351564	-2045.626953125	304.4707946777344	380.6939697265626	-1732.46337890625	295.4842529296876	341.4768676757813	-1768.577514648438	307.1643981933594	324.7043457031251	-1723.067260742188	312.3276062011719	286.0845642089844	-1763.791381835938	368.6030883789063	238.5578765869141	-1617.84814453125	348.7699584960938	206.7794647216797	-1588.314331054688	405.8694763183595	215.2045440673829	-1599.216430664063	427.6888427734376	69.94373321533205	-1754.079467773438	321.7233581542969	50.11256790161134	-1693.941772460938	
165	0.6833333333333333	498.0513305664064	1179.793579101563	-2004.525268554688	384.8312072753907	1175.931884765625	-2006.272583007813	549.8137817382814	1107.856689453125	-2201.4775390625	313.9757690429688	1093.718994140625	-2198.923583984375	631.1024169921876	861.2739257812502	-2226.208984375	621.0838623046876	878.7947387695315	-2283.899169921875	618.9292602539064	800.2520141601565	-2283.590576171875	597.0295410156251	815.5983886718752	-2335.900634765625	559.2554931640626	438.3021240234376	-2142.626220703125	560.3153686523439	395.2389526367189	-2186.92138671875	552.5621948242189	381.8162536621094	-2127.968017578125	541.7331542968751	341.8953247070313	-2171.277099609375	487.2293701171876	289.5864257812501	-2005.668090820313	447.5696105957032	262.5303344726563	-1995.99462890625	509.8255615234376	252.0006561279297	-1984.362915039063	439.7649230957032	238.6367797851563	-2063.279541015625	536.3646850585939	223.2088470458985	-2035.836791992188	458.3941955566407	221.6916503906251	-2117.933837890625	457.8203430175782	188.298324584961	-2132.559326171875	509.8473510742189	192.6278228759766	-2147.59326171875	540.7178955078126	175.4132385253907	-2057.102783203125	446.5753784179689	132.7902221679688	-2160.14306640625	502.5061340332032	128.257797241211	-2173.142333984375	555.2534790039064	119.9186630249024	-2113.540771484375	491.6756896972657	94.72908020019533	-2217.114990234375	252.3413543701172	841.7163696289065	-2019.366943359375	262.7969970703126	810.2576293945315	-2070.494873046875	263.2666625976563	756.8923339843751	-2008.448486328125	288.3445129394532	728.6935424804689	-2056.6787109375	303.2026367187501	385.9046630859376	-1739.946044921875	294.1588439941407	346.9089050292969	-1776.369506835938	305.9609680175782	329.7671203613282	-1730.695556640625	311.1691284179688	291.3366699218751	-1771.3984375	366.7760925292969	245.9910430908204	-1626.806884765625	347.4213256835938	214.9961395263672	-1596.135498046875	404.368377685547	223.6105041503907	-1607.59423828125	426.1158142089845	73.09372711181642	-1758.66162109375	321.2612304687501	54.30081176757814	-1697.082153320313	
